#!OML:ASF F:\VICON\USERDATA\INSTALL\rory3\rory3.ASF
:FULLY-SPECIFIED
:DEGREES
1695
root -1.13439 18.6925 -2.78187 4.17246 -0.172059 1.47346
lowerback 10.7288 -0.417469 -3.67151
upperback 0.0642404 -1.07873 -1.09963
thorax -5.91342 -0.439391 1.08379
lowerneck -15.7415 -2.20177 -6.81383
upperneck 3.69583 -2.27415 8.28625
head 3.81704 -0.778336 3.49343
rclavicle -4.96962e-016 -3.97569e-016
rhumerus -21.8879 -18.7499 -43.3419
rradius 96.6963
rwrist -24.9484
rhand -35.0534 7.54046
rfingers 7.12502
rthumb -8.19631 -22.2806
lclavicle -4.96962e-016 -3.97569e-016
lhumerus -22.2581 8.91092 46.8716
lradius 87.7441
lwrist 9.46307
lhand -43.3174 9.46401
lfingers 7.12502
lthumb -16.164 38.81
rfemur -9.66612 12.1407 10.4517
rtibia 22.4079
rfoot -26.5215 -32.8443
rtoes 9.73673
lfemur -11.1031 1.24431 -16.0181
ltibia 24.6737
lfoot -18.0944 22.097
ltoes -1.60944
1696
root -1.13498 18.6948 -2.77446 4.25919 -0.284295 1.44627
lowerback 10.6059 -0.395437 -3.68033
upperback 0.0224267 -1.04516 -1.08665
thorax -5.88945 -0.422518 1.09581
lowerneck -15.6572 -2.24565 -6.83126
upperneck 3.69485 -2.33357 8.27779
head 3.80806 -0.810254 3.48883
rclavicle -7.05686e-015 -1.59028e-015
rhumerus -21.9219 -18.5652 -43.4728
rradius 96.6341
rwrist -24.5821
rhand -35.6062 7.38035
rfingers 7.12502
rthumb -8.72976 -22.4191
lclavicle -7.05686e-015 -1.59028e-015
lhumerus -22.5168 8.95063 46.9212
lradius 87.643
lwrist 9.5033
lhand -43.2668 9.4347
lfingers 7.12502
lthumb -16.1153 38.7847
rfemur -9.70086 12.5071 10.4829
rtibia 22.3214
rfoot -26.6475 -33.0693
rtoes 9.62168
lfemur -11.1134 1.35323 -15.9927
ltibia 24.5997
lfoot -18.0737 22.1213
ltoes -1.45999
1697
root -1.13306 18.6954 -2.75994 4.24839 -0.402756 1.44032
lowerback 10.4941 -0.381371 -3.6824
upperback 0.0239455 -1.0214 -1.08915
thorax -5.82596 -0.412024 1.08934
lowerneck -15.4759 -2.27331 -6.81038
upperneck 3.6031 -2.37826 8.25451
head 3.75426 -0.837737 3.47438
rclavicle -1.98785e-016 6.36111e-015
rhumerus -21.9725 -18.4013 -43.6191
rradius 96.5996
rwrist -24.2693
rhand -35.6705 7.64857
rfingers 7.12502
rthumb -8.79181 -22.1483
lclavicle -1.98785e-016 6.36111e-015
lhumerus -22.8375 8.96896 46.91
lradius 87.5496
lwrist 9.49914
lhand -43.1454 9.42107
lfingers 7.12502
lthumb -15.9984 38.7805
rfemur -9.61778 12.723 10.5022
rtibia 22.2431
rfoot -27.3053 -33.0158
rtoes 10.7164
lfemur -10.9916 1.43244 -16.0018
ltibia 24.5591
lfoot -18.1418 22.1382
ltoes -1.42033
1698
root -1.13324 18.6948 -2.74907 4.18574 -0.473125 1.42203
lowerback 10.4822 -0.378705 -3.64793
upperback 0.0613215 -1.0132 -1.11101
thorax -5.78108 -0.410483 1.04549
lowerneck -15.4089 -2.32311 -6.76247
upperneck 3.48801 -2.44947 8.22527
head 3.71294 -0.875892 3.45147
rclavicle -7.45443e-015 -4.37326e-015
rhumerus -22.0428 -18.2883 -43.7684
rradius 96.6248
rwrist -24.1126
rhand -35.8464 7.86005
rfingers 7.12502
rthumb -8.96163 -21.9296
lclavicle -7.45443e-015 -4.37326e-015
lhumerus -23.1002 8.98921 46.883
lradius 87.4611
lwrist 9.58697
lhand -42.9241 9.09032
lfingers 7.12502
lthumb -15.7852 38.4667
rfemur -9.48705 12.8357 10.5504
rtibia 22.1908
rfoot -27.3085 -33.1536
rtoes 10.5404
lfemur -10.8566 1.59941 -15.9831
ltibia 24.562
lfoot -18.1539 22.0547
ltoes -1.52163
1699
root -1.13516 18.6957 -2.74934 4.21875 -0.543286 1.41606
lowerback 10.5171 -0.378009 -3.65712
upperback 0.0509339 -1.01626 -1.12444
thorax -5.81169 -0.411273 1.03752
lowerneck -15.28 -2.34129 -6.76679
upperneck 3.26904 -2.4738 8.29081
head 3.62906 -0.888761 3.47049
rclavicle 3.57812e-015 6.75868e-015
rhumerus -22.0982 -18.1303 -43.922
rradius 96.6489
rwrist -23.8686
rhand -35.9884 7.9557
rfingers 7.12502
rthumb -9.09863 -21.828
lclavicle 3.57812e-015 6.75868e-015
lhumerus -23.4326 9.0291 46.9131
lradius 87.472
lwrist 9.77315
lhand -42.8367 8.75895
lfingers 7.12502
lthumb -15.7011 38.142
rfemur -9.53306 12.9295 10.561
rtibia 22.1763
rfoot -26.9269 -33.38
rtoes 9.82949
lfemur -10.9148 1.79649 -15.9651
ltibia 24.6184
lfoot -18.1001 21.9434
ltoes -1.52467
1700
root -1.13528 18.695 -2.751 4.28516 -0.610994 1.35405
lowerback 10.533 -0.395424 -3.57972
upperback 0.0439473 -1.03047 -1.1161
thorax -5.82847 -0.419981 1.00516
lowerneck -15.2508 -2.3544 -6.80323
upperneck 3.12539 -2.48106 8.32507
head 3.58232 -0.89275 3.48635
rclavicle -5.06901e-015 1.23246e-014
rhumerus -22.0316 -17.9858 -44.1167
rradius 96.5646
rwrist -23.5324
rhand -35.757 7.86114
rfingers 7.12502
rthumb -8.8753 -21.9322
lclavicle -5.06901e-015 1.23246e-014
lhumerus -23.7487 9.15205 46.9703
lradius 87.4627
lwrist 9.9292
lhand -43.1541 8.55056
lfingers 7.12502
lthumb -16.0068 37.9093
rfemur -9.63865 12.967 10.6129
rtibia 22.2021
rfoot -26.8933 -33.2917
rtoes 9.82752
lfemur -11.0383 1.98665 -15.8931
ltibia 24.7128
lfoot -18.0717 21.8253
ltoes -1.58631
1701
root -1.13539 18.6931 -2.75021 4.32936 -0.668806 1.25297
lowerback 10.5856 -0.432414 -3.47132
upperback 0.0467827 -1.06619 -1.07374
thorax -5.85451 -0.439588 0.99471
lowerneck -15.3254 -2.37308 -6.8571
upperneck 3.05571 -2.48791 8.32506
head 3.57389 -0.895829 3.49436
rclavicle 3.37934e-015 -1.70955e-014
rhumerus -21.8918 -17.7731 -44.31
rradius 96.428
rwrist -23.1987
rhand -35.6026 7.90119
rfingers 7.12502
rthumb -8.7263 -21.8984
lclavicle 3.37934e-015 -1.70955e-014
lhumerus -23.9509 9.3402 47.0395
lradius 87.3085
lwrist 9.89395
lhand -43.4493 8.7562
lfingers 7.12502
lthumb -16.291 38.0919
rfemur -9.70883 12.9924 10.7126
rtibia 22.2353
rfoot -26.8658 -33.174
rtoes 9.63313
lfemur -11.1535 2.24312 -15.7822
ltibia 24.8579
lfoot -17.9641 21.6779
ltoes -2.02027
